<?xml version="1.0" encoding="utf-8"?>
<!-- Generator: Adobe Illustrator 24.2.1, SVG Export Plug-In . SVG Version: 6.00 Build 0)  -->
<svg version="1.1" id="Layer_1" xmlns="http://www.w3.org/2000/svg" xmlns:xlink="http://www.w3.org/1999/xlink" x="0px" y="0px"
	 viewBox="0 0 640 198" style="enable-background:new 0 0 640 198;" xml:space="preserve">
<style type="text/css">
	.st0{fill-rule:evenodd;clip-rule:evenodd;fill:#FFFFFF;}
	.st1{fill:#FFFFFF;}
</style>
<g>
	<path class="st0" d="M153.5,91c0.5,2.8,0.7,5.7,0.7,8.6c0,28.9-23.4,52.3-52.3,52.3s-52.3-23.4-52.3-52.3S73,47.3,101.9,47.3
		c11.6,0,22.4,3.8,31.1,10.2c2.6-2.5,5.1-4.9,7.7-7.2c-10.7-8.4-24.2-13.5-38.8-13.5c-34.7,0-62.8,28.1-62.8,62.8
		s28.1,62.8,62.8,62.8s62.8-28.1,62.8-62.8c0-6.4-1-12.5-2.7-18.4C159.2,84.3,156.4,87.6,153.5,91"/>
	<path class="st0" d="M172.3,39.6c-20.9,11.7-57.5,51.6-69,65.1c0,0-0.8,2.6-5.3-15.7c-0.8-3.1-4.2-4.7-6.8-3.5
		c-1.2,0.5-4,1.6-5.2,2.2c-1.6,0.8-2.7,2.9-2.5,4.6c1.8,16.2,3,22.3,5.1,39.2c0.5,3.9,4.4,5.9,7.7,4.9c2.7-0.8,5.8-2,8.1-2.9
		c4.5-1.7,7.8-6.1,9.2-8.4c20.9-32,57.3-70.4,64.4-77.5C181.3,44.3,175.9,37.6,172.3,39.6"/>
</g>
<g>
	<path class="st1" d="M604.7,62.8c0,4.2-3.3,7.6-7.7,7.6c-4.3,0-7.7-3.3-7.7-7.6c0-4.2,3.4-7.5,7.7-7.5
		C601.4,55.3,604.7,58.7,604.7,62.8 M591.3,62.8c0,3.3,2.5,6,5.8,6s5.7-2.6,5.7-5.9c0-3.3-2.4-6-5.7-6
		C593.7,56.8,591.3,59.5,591.3,62.8 M595.9,66.7h-1.7v-7.5c0.7-0.1,1.6-0.2,2.9-0.2c1.4,0,2.1,0.2,2.6,0.5c0.4,0.3,0.7,0.9,0.7,1.6
		c0,0.8-0.6,1.5-1.5,1.7V63c0.7,0.3,1.1,0.8,1.4,1.8c0.2,1.1,0.4,1.6,0.5,1.9h-1.9c-0.2-0.3-0.4-1-0.6-1.8c-0.1-0.8-0.6-1.2-1.5-1.2
		H596v3H595.9z M595.9,62.5h0.8c1,0,1.7-0.3,1.7-1.1c0-0.7-0.5-1.1-1.6-1.1c-0.5,0-0.8,0-1,0.1L595.9,62.5L595.9,62.5z"/>
	<path class="st0" d="M297.8,74.4c-3.5,0-6.3,1.7-8.3,5.1l-18.8,35l-1.9-40.1h-16.2l6.6,57.1h15.6l34.5-57.1H297.8z"/>
	<path class="st0" d="M336.9,115c-1.1,0.7-1.8,1.3-2.1,1.7c-0.5,0.4-1,0.8-1.5,1.2c-0.5,0.4-0.9,0.6-1.4,0.7c-2,1-4.2,1.5-6.7,1.5
		c-3.8,0-6.4-1.1-7.7-3.4c-1.5-2.1-1.8-5.4-0.9-9.9h38c0.2-0.3,0.4-0.8,0.6-1.5c0-0.2,0.1-0.4,0.2-0.9c0.1-0.4,0.2-0.9,0.4-1.5
		c2.3-9.4,1.7-16.8-1.7-22.1c-3.6-5.2-9.8-7.7-18.5-7.7c-8.3,0-15.5,2.6-21.5,7.9c-5.8,5.2-9.8,12.3-12,21.5
		c-2.3,9.6-1.8,16.9,1.7,22.1c3.4,5.3,9.3,7.9,17.6,7.9c6.9,0,13-1.6,18.3-4.9c5.3-3.1,9.5-7.7,12.5-13.7h-11
		C339.4,113.9,338,114.3,336.9,115 M324.3,88.6c2.5-2,5.4-3,8.6-3c3.5,0,6,1,7.4,3c1.3,1.9,1.6,4.7,1,8.6h-22.4
		C320,93.5,321.8,90.6,324.3,88.6"/>
	<path class="st0" d="M385.5,75.9c-4,1-7.6,2.6-10.9,4.7c-3.5,2.3-6.5,5.3-9.1,9.1c-2.6,3.8-4.6,8.5-5.9,14.1l-6.7,27.7h15.4
		l7.1-29.4c1-4.3,2.8-7.4,5.4-9.4c2.5-2,5.9-3,10.2-3h5.1l3.7-15.2h-2.2C393.5,74.4,389.5,74.9,385.5,75.9"/>
	<path class="st0" d="M473.9,74.4c-3.8,0-6.6,1.7-8.3,5.1l-16.4,34.3l1.7-39.5h-15.6l-17.9,39.5l0.4-39.5h-14.9l2.2,57.1h15.4
		l18.9-40.8l-0.9,40.8h15.4l29.8-57.1h-9.8V74.4z"/>
	<path class="st0" d="M510.8,115c-1.1,0.7-1.8,1.3-2.1,1.7c-0.5,0.4-1,0.8-1.5,1.2c-0.5,0.4-0.9,0.6-1.4,0.7c-2,1-4.2,1.5-6.7,1.5
		c-3.8,0-6.4-1.1-7.7-3.4c-1.5-2.1-1.8-5.4-0.9-9.9h38c0.2-0.3,0.4-0.8,0.6-1.5c0-0.2,0.1-0.4,0.2-0.9c0.1-0.4,0.2-0.9,0.4-1.5
		c2.3-9.4,1.7-16.8-1.7-22.1c-3.6-5.2-9.8-7.7-18.5-7.7c-8.3,0-15.5,2.6-21.5,7.9c-5.8,5.2-9.8,12.3-12,21.5
		c-2.3,9.6-1.8,16.9,1.7,22.1c3.4,5.3,9.3,7.9,17.6,7.9c6.9,0,13-1.6,18.3-4.9c5.3-3.1,9.5-7.7,12.5-13.7h-11
		C513.4,113.9,512,114.3,510.8,115 M498.2,88.6c2.5-2,5.4-3,8.6-3c3.5,0,6,1,7.4,3c1.3,1.9,1.6,4.7,1,8.6h-22.4
		C493.9,93.5,495.7,90.6,498.2,88.6"/>
	<path class="st0" d="M558.1,59.7c-1.1-1.4-2.7-2-4.8-2h-7.9l-17.9,73.8h15.4L559,64.8C559.5,62.8,559.2,61.1,558.1,59.7"/>
	<path class="st0" d="M580.1,59.7c-1.1-1.4-2.7-2-4.8-2h-7.9l-17.9,73.8h15.4l16.2-66.7C581.6,62.8,581.2,61.1,580.1,59.7"/>
	<path class="st0" d="M226.6,73.2c-8.3,0-15.5,2.6-21.5,7.9c-5.8,5.2-9.8,12.3-12,21.5c-2.3,9.6-1.8,16.9,1.7,22.1
		c3.4,5.3,9.3,7.9,17.6,7.9c6.9,0,13-1.6,18.3-4.9c5.3-3.1,9.5-7.7,12.5-13.7h-11c-1.8,0-3.2,0.4-4.3,1.1s-1.8,1.3-2.1,1.7
		c-0.5,0.4-1,0.8-1.5,1.2c-0.5,0.4-0.9,0.6-1.4,0.7c-2,1-4.2,1.5-6.7,1.5c-3.8,0-6.4-1.1-7.7-3.4c-1.5-2.1-1.8-5.4-0.9-9.9h38
		c0.2-0.3,0.4-0.8,0.6-1.5c0-0.2,0.1-0.4,0.2-0.9c0.1-0.4,0.2-0.9,0.4-1.5c2.3-9.4,1.7-16.8-1.7-22.1
		C241.6,75.7,235.4,73.2,226.6,73.2 M232.4,97.2H210c1-3.7,2.8-6.6,5.4-8.6c2.5-2,5.4-3,8.6-3c3.5,0,6,1,7.4,3
		C232.7,90.5,233.1,93.3,232.4,97.2"/>
</g>
</svg>
