<svg id="Layer_1" data-name="Layer 1" xmlns="http://www.w3.org/2000/svg" viewBox="0 0 640 198"><defs><style>.cls-1{fill:#fff;}.cls-1,.cls-3,.cls-4{fill-rule:evenodd;}.cls-2,.cls-3{fill:#2d2a26;}.cls-4{fill:#e1251b;}</style></defs><path class="cls-1" d="M596.36,49.67a12.83,12.83,0,0,0-8.14,2.91,15.31,15.31,0,0,0-11.5-4.88H539.33L533.68,71c-4.4-4.13-11.51-7.83-22.88-7.83a43.76,43.76,0,0,0-10.74,1.3H475.24a18,18,0,0,0-13.44,5.63l.24-5.63H394.31v.18a60,60,0,0,0-9.79,1.6,46.2,46.2,0,0,0-13.81,6,41.37,41.37,0,0,0-6.26,5.09,20.24,20.24,0,0,0-1.18-2.08l-.19-.28c-3.73-5.38-11.32-11.8-26.29-11.8A43.87,43.87,0,0,0,326,64.45H299.09c-6.91,0-12.74,3.49-16.45,9.84l-.08.13-2.74,5.1-.71-15.07-40.61,0a42.06,42.06,0,0,0-10.68-1.28,40.54,40.54,0,0,0-27.75,10.34c-7.22,6.43-12.24,15.29-14.91,26.3-3,12.19-2,22.1,2.94,29.49,3.6,5.6,11,12.22,25.52,12.22a43.73,43.73,0,0,0,23.21-6.29A40.86,40.86,0,0,0,250,122.67L252,140.45h29.35l12-19.89a26.33,26.33,0,0,0,3.69,8.72c3.61,5.6,11,12.22,25.52,12.22a47.22,47.22,0,0,0,10.34-1.11l44,.06,8.89-36.66c.49-2.06,1.23-3.6,2.05-4.24a7.32,7.32,0,0,1,4.3-1h3.42l1.6,41.87h63.55L468.81,125a25.5,25.5,0,0,0,2.27,4.26c3.6,5.6,10.95,12.22,25.52,12.22a47.48,47.48,0,0,0,10.28-1.11l66.81.06L589.91,73.6a12.84,12.84,0,1,0,6.45-23.93Z"/><path class="cls-1" d="M170.08,70.94c6.85-7.56,12.57-13.56,15.88-16.89a13,13,0,0,0,3.71-8.61,15.37,15.37,0,0,0-4.16-11.25,14.58,14.58,0,0,0-10.59-4.95,12.29,12.29,0,0,0-6,1.56,123.41,123.41,0,0,0-18.56,13.45l-2.58-2a71.53,71.53,0,0,0-44.68-15.5,72.3,72.3,0,1,0,69.12,51.16Z"/><path class="cls-2" d="M604.73,62.73a7.71,7.71,0,1,1-7.68-7.49A7.54,7.54,0,0,1,604.73,62.73Zm-13.49,0a5.81,5.81,0,0,0,5.85,6,5.74,5.74,0,0,0,5.71-5.94,5.78,5.78,0,1,0-11.56,0Zm4.61,3.93h-1.73V59.17a14.74,14.74,0,0,1,2.87-.24,4.54,4.54,0,0,1,2.61.57,2,2,0,0,1,.73,1.63,1.9,1.9,0,0,1-1.55,1.73V63a2.24,2.24,0,0,1,1.37,1.83,6,6,0,0,0,.55,1.88h-1.87a6.84,6.84,0,0,1-.61-1.83c-.13-.83-.59-1.19-1.55-1.19h-.82Zm0-4.25h.83c.95,0,1.73-.32,1.73-1.1s-.51-1.13-1.6-1.13a4.11,4.11,0,0,0-1,.08Z"/><path class="cls-3" d="M297.66,74.37c-3.52,0-6.26,1.71-8.28,5.15l-18.8,35-1.89-40.14H252.44l6.56,57.1h15.59l34.49-57.1Z"/><path class="cls-3" d="M336.74,114.93a7,7,0,0,0-2.06,1.71c-.56.44-1,.84-1.5,1.19a4.13,4.13,0,0,1-1.39.75A14.73,14.73,0,0,1,325,120.1c-3.8,0-6.37-1.16-7.72-3.46-1.52-2.13-1.81-5.43-.89-9.87h38a4.45,4.45,0,0,0,.57-1.49l.22-.87.36-1.5q3.42-14.14-1.66-22.1c-3.58-5.16-9.79-7.73-18.54-7.73A31.26,31.26,0,0,0,313.89,81q-8.67,7.73-12,21.47-3.5,14.39,1.66,22.11,5.11,7.93,17.62,7.93a34.21,34.21,0,0,0,18.32-4.92A33.08,33.08,0,0,0,352,113.87h-11A7.72,7.72,0,0,0,336.74,114.93Zm-12.6-26.39a13.55,13.55,0,0,1,8.64-3q5.28,0,7.39,3c1.31,1.85,1.62,4.72,1,8.58H318.77A16,16,0,0,1,324.14,88.54Z"/><path class="cls-3" d="M385.41,75.88A35.3,35.3,0,0,0,374.5,80.6a33.27,33.27,0,0,0-9.14,9.11,42.4,42.4,0,0,0-5.93,14.07l-6.72,27.69h15.38l7.12-29.41c1-4.29,2.84-7.45,5.38-9.45s5.91-3,10.16-3h5.05l3.69-15.24h-2.18A48.11,48.11,0,0,0,385.41,75.88Z"/><path class="cls-3" d="M473.82,74.37a8.61,8.61,0,0,0-8.27,5.15L449.1,113.87l1.67-39.5H435.18l-17.92,39.5.37-39.5H402.69l2.18,57.1h15.37l18.89-40.8-.88,40.8H453.6l29.88-57.1Z"/><path class="cls-3" d="M510.75,114.93a7.31,7.31,0,0,0-2.06,1.71l-1.48,1.19a4.07,4.07,0,0,1-1.4.75,14.68,14.68,0,0,1-6.73,1.52c-3.8,0-6.37-1.16-7.73-3.46-1.53-2.13-1.82-5.43-.91-9.87h38a4,4,0,0,0,.58-1.49c0-.16.12-.43.22-.87s.22-.92.37-1.5q3.42-14.14-1.67-22.1-5.37-7.74-18.55-7.73A31.19,31.19,0,0,0,487.92,81q-8.67,7.73-12,21.47-3.48,14.39,1.67,22.11,5.12,7.93,17.62,7.93a34.12,34.12,0,0,0,18.31-4.92,33,33,0,0,0,12.55-13.74h-11A7.85,7.85,0,0,0,510.75,114.93ZM498.17,88.54a13.52,13.52,0,0,1,8.63-3c3.51,0,6,1,7.4,3,1.31,1.85,1.63,4.72,1,8.58h-22.4A16,16,0,0,1,498.17,88.54Z"/><path class="cls-3" d="M558,59.66a5.89,5.89,0,0,0-4.78-2h-7.91l-17.91,73.85h15.36L559,64.7A5.5,5.5,0,0,0,558,59.66Z"/><path class="cls-3" d="M580.07,59.66a5.87,5.87,0,0,0-4.77-2h-7.89l-17.93,73.85h15.37l16.2-66.77A5.47,5.47,0,0,0,580.07,59.66Z"/><path class="cls-3" d="M226.4,73.08A31.28,31.28,0,0,0,204.92,81q-8.67,7.73-12,21.47-3.48,14.39,1.67,22.11c3.39,5.29,9.28,7.93,17.61,7.93a34.16,34.16,0,0,0,18.32-4.92,33.06,33.06,0,0,0,12.55-13.74h-11a7.83,7.83,0,0,0-4.33,1.06,7.4,7.4,0,0,0-2.07,1.71c-.53.44-1,.84-1.48,1.19a4.13,4.13,0,0,1-1.39.75,14.74,14.74,0,0,1-6.73,1.52c-3.8,0-6.38-1.16-7.74-3.46-1.53-2.13-1.82-5.43-.88-9.87h38a4.42,4.42,0,0,0,.58-1.49c.05-.16.11-.43.21-.87s.23-.92.37-1.5Q250,88.77,245,80.81,239.58,73.07,226.4,73.08Zm5.81,24H209.82a16,16,0,0,1,5.36-8.58,13.51,13.51,0,0,1,8.64-3q5.27,0,7.39,3C232.53,90.39,232.85,93.26,232.21,97.12Z"/><path class="cls-4" d="M153.29,90.89a52.35,52.35,0,1,1-51.63-43.78,52.16,52.16,0,0,1,31.08,10.23c2.55-2.45,5.15-4.89,7.75-7.24a62.65,62.65,0,1,0,21.25,31C159,84.22,156.15,87.51,153.29,90.89Z"/><path class="cls-4" d="M172.07,39.52c-21,11.7-57.52,51.68-69,65.18,0,0-.83,2.62-5.35-15.68A5.09,5.09,0,0,0,91,85.51c-1.18.51-4,1.62-5.2,2.2a4.82,4.82,0,0,0-2.49,4.61c1.81,16.18,3,22.28,5.06,39.21a6,6,0,0,0,7.74,4.88c2.68-.82,5.86-2,8-2.9,4.5-1.67,7.78-6.11,9.26-8.39,20.87-32,57.37-70.41,64.46-77.57C181.11,44.24,175.67,37.52,172.07,39.52Z"/></svg>